<svg width="32" height="33" viewBox="0 0 32 33" fill="none" xmlns="http://www.w3.org/2000/svg">
<path d="M6 31.25H6.75V30.5V23C6.75 22.3096 6.19036 21.75 5.5 21.75H4.5C3.80964 21.75 3.25 22.3096 3.25 23V30.5V31.25H4H6Z" stroke="white" stroke-width="1.5"/>
<path d="M13 31.25H13.75V30.5V20C13.75 19.3096 13.1904 18.75 12.5 18.75H11.5C10.8096 18.75 10.25 19.3096 10.25 20V30.5V31.25H11H13Z" stroke="white" stroke-width="1.5"/>
<path d="M20 31.25H20.75V30.5V17C20.75 16.3096 20.1904 15.75 19.5 15.75H18.5C17.8096 15.75 17.25 16.3096 17.25 17V30.5V31.25H18H20Z" stroke="white" stroke-width="1.5"/>
<path d="M27 31.25H27.75V30.5V12C27.75 11.3096 27.1904 10.75 26.5 10.75H25.5C24.8096 10.75 24.25 11.3096 24.25 12V30.5V31.25H25H27Z" stroke="white" stroke-width="1.5"/>
<rect x="0.5" y="31" width="31" height="1" rx="0.5" fill="black" stroke="white"/>
<path d="M23.7231 7.08388L23.1435 6.60795L23.7231 7.08388ZM29.0544 1.4266C29.0139 1.01437 28.6469 0.713022 28.2347 0.753522L21.517 1.4135C21.1048 1.454 20.8034 1.82101 20.8439 2.23323C20.8844 2.64546 21.2515 2.94681 21.6637 2.90631L27.6349 2.31966L28.2216 8.29092C28.2621 8.70315 28.6291 9.00449 29.0413 8.96399C29.4535 8.92349 29.7549 8.55648 29.7144 8.14425L29.0544 1.4266ZM1.63461 18.8724C1.23979 18.9977 1.02124 19.4192 1.14648 19.8141C1.27172 20.2089 1.69331 20.4274 2.08814 20.3022L1.63461 18.8724ZM7.21637 17.8887L6.9896 17.1738L6.9896 17.1738L7.21637 17.8887ZM13.0828 15.4726L13.4253 16.1398L13.4253 16.1398L13.0828 15.4726ZM13.7447 15.1328L13.4022 14.4656L13.7447 15.1328ZM19.7446 11.1261L19.2595 10.5541L19.7446 11.1261ZM24.3027 7.55982L28.8877 1.97586L27.7284 1.02399L23.1435 6.60795L24.3027 7.55982ZM2.08814 20.3022L7.44313 18.6036L6.9896 17.1738L1.63461 18.8724L2.08814 20.3022ZM13.4253 16.1398L14.0872 15.8001L13.4022 14.4656L12.7403 14.8053L13.4253 16.1398ZM14.0872 15.8001C16.2848 14.6721 18.3457 13.2958 20.2297 11.6981L19.2595 10.5541C17.4631 12.0776 15.4978 13.39 13.4022 14.4656L14.0872 15.8001ZM7.44313 18.6036C9.50234 17.9504 11.5034 17.1263 13.4253 16.1398L12.7403 14.8053C10.8928 15.7537 8.96915 16.5459 6.9896 17.1738L7.44313 18.6036ZM23.1435 6.60795C21.9699 8.03723 20.67 9.35794 19.2595 10.5541L20.2297 11.6981C21.7088 10.4437 23.072 9.0587 24.3027 7.55982L23.1435 6.60795Z" fill="white"/>
</svg>
