<svg width="70" height="70" viewBox="0 0 245 203" fill="none" xmlns="http://www.w3.org/2000/svg">
<path d="M78.998 158.949C78.998 158.949 96.0673 66.2337 129.438 79.6911C152.981 89.1854 159.313 132.609 159.313 132.609L194.423 39.5101L182.134 43.5973L219 0L214.172 56.7673L206.273 43.5973L186.962 90.3736L156.87 163.417C156.87 163.417 152.535 106.092 126.397 99.4564C93.4632 91.0958 84.2645 178.022 84.2645 178.022C84.2645 178.022 59.9634 136.372 35.6263 137.586C6.17511 139.057 0.487515 197.325 0.0315497 202.616L0 203C0 203 0.0098508 202.868 0.0315497 202.616L1.75551 181.655C1.75551 181.655 8.82284 126.56 35.6263 124.888C56.8509 123.564 78.998 158.949 78.998 158.949Z" fill="#44B892"/>
<path d="M214.198 81.8927C193.966 60.1004 176.183 51.6303 146.925 46.1003C116.541 40.3576 68.3613 56.1388 68.3613 56.1388C68.3613 56.1388 128.148 43.3311 175.255 68.0411C222.361 92.7512 244.661 149.645 244.661 149.645C244.661 149.645 233.947 103.165 214.198 81.8927Z" fill="white"/>
</svg>
