<svg width="32" height="33" viewBox="0 0 32 33" fill="none" xmlns="http://www.w3.org/2000/svg">
<path d="M9.33464 3.16675H4.0013C3.64768 3.16675 3.30854 3.30722 3.05849 3.55727C2.80844 3.80732 2.66797 4.14646 2.66797 4.50008V28.5001C2.66797 28.8537 2.80844 29.1928 3.05849 29.4429C3.30854 29.6929 3.64768 29.8334 4.0013 29.8334H9.33464C9.68826 29.8334 10.0274 29.6929 10.2774 29.4429C10.5275 29.1928 10.668 28.8537 10.668 28.5001V4.50008C10.668 4.14646 10.5275 3.80732 10.2774 3.55727C10.0274 3.30722 9.68826 3.16675 9.33464 3.16675ZM6.66797 28.5001C6.14055 28.5001 5.62498 28.3437 5.18645 28.0507C4.74792 27.7576 4.40612 27.3412 4.20429 26.8539C4.00246 26.3666 3.94965 25.8305 4.05254 25.3132C4.15544 24.7959 4.40941 24.3207 4.78235 23.9478C5.15529 23.5749 5.63045 23.3209 6.14773 23.218C6.66501 23.1151 7.20119 23.1679 7.68846 23.3697C8.17573 23.5716 8.5922 23.9134 8.88522 24.3519C9.17824 24.7904 9.33464 25.306 9.33464 25.8334C9.33464 26.5407 9.05368 27.2189 8.55359 27.719C8.05349 28.2191 7.37521 28.5001 6.66797 28.5001ZM9.33464 16.5001H4.0013V4.50008H9.33464V16.5001Z" fill="white"/>
<path d="M6.68099 27.1801C7.41737 27.1801 8.01432 26.5831 8.01432 25.8468C8.01432 25.1104 7.41737 24.5134 6.68099 24.5134C5.94461 24.5134 5.34766 25.1104 5.34766 25.8468C5.34766 26.5831 5.94461 27.1801 6.68099 27.1801Z" fill="white"/>
<path d="M18.6654 3.16675H29.332V5.86008H18.6654V3.16675ZM13.332 3.16675H16.012V5.86008H13.332V3.16675ZM18.6654 8.50008H29.332V11.1934H18.6654V8.50008ZM13.332 8.50008H16.012V11.1934H13.332V8.50008ZM18.6654 13.8334H29.332V16.5267H18.6654V13.8334ZM13.332 13.8334H16.012V16.5267H13.332V13.8334Z" fill="white"/>
</svg>
