<svg width="252" height="43" viewBox="0 0 252 43" fill="none" xmlns="http://www.w3.org/2000/svg">
<path d="M0.109808 7.90002C0.0366028 7.72282 0 7.52347 0 7.30197C0 7.0657 0.124449 6.7999 0.373348 6.50457C0.636888 6.19447 1.02488 6.03942 1.53732 6.03942H6.34692C6.91792 6.03942 7.445 6.23877 7.92816 6.63747C8.41131 7.03617 8.75538 7.53823 8.96036 8.14367L14.7582 25.6864L20.1169 8.14367C20.5415 6.74084 21.4126 6.03942 22.7303 6.03942H26.7713C28.089 6.03942 28.9601 6.74084 29.3847 8.14367L34.7433 25.6864L40.5412 8.14367C40.7462 7.53823 41.0903 7.03617 41.5734 6.63747C42.0566 6.23877 42.5837 6.03942 43.1547 6.03942H47.9643C48.4621 6.03942 48.8354 6.19447 49.0843 6.50457C49.3478 6.7999 49.4796 7.0657 49.4796 7.30197C49.4796 7.52347 49.4503 7.72282 49.3918 7.90002L39.5969 35.5432C39.0551 37.0494 38.001 37.8025 36.4344 37.8025H33.25C31.6248 37.8025 30.5779 37.0494 30.1094 35.5432L24.7508 18.4877L19.3921 35.5432C18.909 37.0494 17.8621 37.8025 16.2516 37.8025H13.0452C11.4933 37.8025 10.4464 37.0494 9.90471 35.5432L0.109808 7.90002Z" fill="white"/>
<path d="M52.575 35.0116C50.3203 32.8556 49.1929 29.7547 49.1929 25.7086C49.1929 21.6478 50.3276 18.532 52.5969 16.3613C54.8663 14.1758 58.0142 13.0831 62.0405 13.0831C66.0668 13.0831 69.2073 14.1463 71.462 16.2727C73.7167 18.3843 74.8441 21.4189 74.8441 25.3763V26.6389C74.8441 27.0376 74.7123 27.3698 74.4488 27.6356C74.1999 27.8867 73.8778 28.0122 73.4825 28.0122H56.9454C57.0918 29.8285 57.6042 31.1501 58.4827 31.977C59.3758 32.804 60.796 33.2174 62.7432 33.2174C64.6905 33.2174 66.0228 32.7744 66.7402 31.8884C67.4577 31.0024 68.3435 30.552 69.3976 30.5373H72.6699C73.0652 30.5373 73.3873 30.6702 73.6362 30.936C73.8998 31.187 74.0315 31.5119 74.0315 31.9106C74.0315 36.1486 70.0272 38.2602 62.0185 38.2455C57.9776 38.2455 54.8297 37.1675 52.575 35.0116ZM56.9014 23.3385H67.1136C66.9672 19.8536 65.2688 18.1112 62.0185 18.1112C58.7828 18.1112 57.0771 19.8536 56.9014 23.3385Z" fill="white"/>
<path d="M79.4329 36.2077C77.5002 34.8491 76.5339 32.9295 76.5339 30.4487C76.5339 27.9679 77.5002 26.063 79.4329 24.734C81.3801 23.405 83.8838 22.7405 86.9437 22.7405H94.2131C94.2131 21.0128 93.8544 19.8093 93.1369 19.13C92.4195 18.4508 91.1604 18.1112 89.3595 18.1112C87.5733 18.1112 86.3142 18.5615 85.5821 19.4623C84.8647 20.3483 83.9789 20.7913 82.9248 20.7913H79.6525C79.2572 20.7913 78.9277 20.6658 78.6642 20.4147C78.4153 20.1489 78.2909 19.8241 78.2909 19.4401C78.2909 15.2021 82.2806 13.0831 90.26 13.0831C93.7445 13.0831 96.541 13.8731 98.6493 15.4532C100.758 17.0184 101.812 19.4475 101.812 22.7405V36.4513C101.812 36.85 101.687 37.1749 101.438 37.4259C101.19 37.6769 100.867 37.8025 100.472 37.8025H96.2335C95.8382 37.8025 95.5161 37.6769 95.2672 37.4259C95.0183 37.1601 94.8939 36.8352 94.8939 36.4513V35.7647C92.5806 37.4333 89.9086 38.2602 86.8779 38.2455C83.8618 38.2455 81.3801 37.5662 79.4329 36.2077ZM87.4708 27.7685C86.446 27.7685 85.6334 28.0196 85.0331 28.5216C84.4474 29.0237 84.1546 29.6734 84.1546 30.4708C84.1546 31.2682 84.4621 31.9253 85.077 32.4422C85.6919 32.959 86.5631 33.2174 87.6904 33.2174C89.9452 33.2174 92.1194 32.5529 94.2131 31.2239V27.7685H87.4708Z" fill="white"/>
<path d="M106.247 36.4513V7.41272C106.247 7.01402 106.371 6.68915 106.62 6.43812C106.884 6.17232 107.206 6.03942 107.586 6.03942H112.506C112.887 6.03942 113.201 6.17232 113.45 6.43812C113.714 6.68915 113.846 7.01402 113.846 7.41272V36.4513C113.846 36.8352 113.714 37.1601 113.45 37.4259C113.201 37.6769 112.887 37.8025 112.506 37.8025H107.586C107.206 37.8025 106.884 37.6769 106.62 37.4259C106.371 37.1601 106.247 36.8352 106.247 36.4513Z" fill="white"/>
<path d="M129.723 32.9959L132.731 32.7301H133.544C133.939 32.7301 134.261 32.8556 134.51 33.1067C134.774 33.3577 134.906 33.6826 134.906 34.0813V36.4513C134.906 36.7762 134.774 37.0715 134.51 37.3373C134.261 37.5883 133.939 37.7434 133.544 37.8025C132.051 38.0978 130.103 38.2455 127.702 38.2455C121.406 38.2455 118.259 34.923 118.259 28.278V7.41272C118.259 7.01402 118.383 6.68915 118.632 6.43812C118.896 6.17232 119.218 6.03942 119.598 6.03942H124.518C124.898 6.03942 125.213 6.17232 125.462 6.43812C125.726 6.68915 125.857 7.01402 125.857 7.41272V14.8108H131.985C132.365 14.8108 132.68 14.9363 132.929 15.1874C133.193 15.4384 133.324 15.7633 133.324 16.162V18.7978C133.324 19.1965 133.193 19.5214 132.929 19.7724C132.68 20.0234 132.365 20.1489 131.985 20.1489H125.857V28.278C125.857 29.7842 126.209 30.9507 126.912 31.7777C127.614 32.5898 128.551 32.9959 129.723 32.9959Z" fill="white"/>
<path d="M137.518 36.4513V7.41272C137.518 7.01402 137.642 6.68915 137.891 6.43812C138.155 6.17232 138.477 6.03942 138.857 6.03942H143.777C144.158 6.03942 144.472 6.17232 144.721 6.43812C144.985 6.68915 145.117 7.01402 145.117 7.41272V16.2949C147.635 14.1537 150.314 13.0831 153.154 13.0831C156.009 13.0831 158.33 13.9617 160.116 15.719C161.903 17.4614 162.796 20.1342 162.796 23.7372V36.4513C162.796 36.8352 162.664 37.1601 162.4 37.4259C162.151 37.6769 161.829 37.8025 161.434 37.8025H156.537C156.156 37.8025 155.834 37.6769 155.57 37.4259C155.321 37.1601 155.197 36.8352 155.197 36.4513V23.7372C155.197 20.208 153.799 18.4434 151.002 18.4434C149.172 18.4434 147.21 19.4992 145.117 21.6108V36.4513C145.117 36.8352 144.985 37.1601 144.721 37.4259C144.472 37.6769 144.158 37.8025 143.777 37.8025H138.857C138.477 37.8025 138.155 37.6769 137.891 37.4259C137.642 37.1601 137.518 36.8352 137.518 36.4513Z" fill="white"/>
<path d="M168.329 35.7647L175.225 14.8994C178.168 9.19916 182.252 7.32379 188.812 5.66993L200.525 2.83473C202.633 2.36217 205.678 0.944604 206.615 0C206.981 0.413466 202.149 7.48623 202.149 8.03259V35.7647C202.149 36.3406 201.945 36.8279 201.535 37.2266C201.125 37.6105 200.634 37.8025 200.063 37.8025H195.934C195.334 37.8025 194.836 37.6105 194.441 37.2266C194.06 36.8279 193.87 36.3258 193.87 35.7204V30.1386H178.255L176.865 34.4944C176.718 35.0998 176.162 36.1483 175.693 37.0933C175.181 37.4773 174.288 38.5113 173.585 38.9838C173.585 38.9838 170.774 40.8739 170.305 41.1102C169.837 41.3465 167.729 42.0549 163.043 43C164.215 41.8187 166.089 40.1648 167.026 38.9838C167.553 38.3187 168.285 35.9566 168.329 35.7647ZM179.88 23.8701H193.87L194.668 10.3953L189.749 11.5766C187.64 12.0491 185.532 13.2862 185.298 13.4667C184.991 13.703 183.182 14.8994 182.252 16.7744C181.323 18.6495 179.88 23.8701 179.88 23.8701Z" fill="#44B892"/>
<path d="M223.649 19.1522L220.267 19.0193C218.29 19.0193 216.401 20.112 214.601 22.2975V36.4513C214.601 36.85 214.469 37.1749 214.205 37.4259C213.956 37.6769 213.642 37.8025 213.261 37.8025H208.341C207.946 37.8025 207.624 37.6769 207.375 37.4259C207.126 37.1749 207.002 36.85 207.002 36.4513V14.8994C207.002 14.5007 207.126 14.1758 207.375 13.9248C207.639 13.659 207.961 13.5261 208.341 13.5261H213.261C213.656 13.5261 213.978 13.659 214.227 13.9248C214.476 14.1758 214.601 14.5007 214.601 14.8994V16.2949C216.094 15.2021 217.529 14.3973 218.905 13.8805C220.296 13.3489 222.111 13.0831 224.352 13.0831C224.747 13.0831 225.069 13.216 225.318 13.4818C225.581 13.7328 225.713 14.0503 225.713 14.4343V17.8011C225.713 18.1998 225.581 18.5246 225.318 18.7757C225.069 19.0267 224.747 19.1522 224.352 19.1522H223.649Z" fill="#44B892"/>
<path d="M239.306 38.2455C235.207 38.2455 232.015 37.1823 229.731 35.0559C227.447 32.9295 226.305 29.8063 226.305 25.6864C226.305 21.5518 227.44 18.4213 229.709 16.2949C231.978 14.1537 235.133 13.0831 239.174 13.0831C243.23 13.0831 246.341 13.7328 248.508 15.0323C250.69 16.3318 251.78 18.2514 251.78 20.7913C251.78 21.19 251.649 21.5149 251.385 21.7659C251.136 22.0169 250.814 22.1424 250.419 22.1424H247.146C246.151 22.1424 245.309 21.6035 244.621 20.5255C243.757 19.1374 242.227 18.4434 240.031 18.4434C237.849 18.4434 236.319 19.0119 235.441 20.1489C234.577 21.2712 234.145 23.1097 234.145 25.6643C234.145 28.2189 234.592 30.0647 235.485 31.2018C236.393 32.3388 237.959 32.9073 240.185 32.9073C242.425 32.9073 243.977 32.2133 244.84 30.8252C245.529 29.7325 246.37 29.1861 247.366 29.1861H250.638C251.034 29.1861 251.356 29.319 251.605 29.5848C251.868 29.8359 252 30.1533 252 30.5373C252 33.0771 250.909 34.9968 248.728 36.2963C246.561 37.5957 243.42 38.2455 239.306 38.2455Z" fill="#44B892"/>
</svg>
